<svg width="140" height="34" viewBox="0 0 140 34" fill="none" xmlns="http://www.w3.org/2000/svg">
<path d="M60.123 13.2617H64.4971C63.7673 8.61098 59.7396 5.36963 54.4986 5.36963C48.2969 5.36963 43.644 9.92886 43.644 17.5683C43.644 25.066 48.0877 29.719 54.6249 29.719C60.4933 29.719 64.6931 25.9461 64.6931 19.8359V16.9888H55.078V20.3434H60.5478C60.4781 23.722 58.2213 25.8633 54.6663 25.8633C50.6974 25.8633 47.9788 22.8899 47.9788 17.5203C47.9788 12.1856 50.7431 9.22309 54.5748 9.22309C57.4153 9.22309 59.3584 10.7501 60.123 13.2617Z" fill="#171321"/>
<path d="M67.5837 29.3922H71.7726V11.6193H67.5837V29.3922ZM69.6967 8.80488C71.0277 8.80488 72.1146 7.78542 72.1146 6.53724C72.1146 5.28906 71.0255 4.25653 69.6967 4.25653C68.3679 4.25653 67.2657 5.27599 67.2657 6.53724C67.2657 7.79849 68.3483 8.80488 69.6967 8.80488Z" fill="#171321"/>
<path d="M84.3155 11.6192H80.8062V7.3606H76.6216V11.6192H74.0991V14.8627H76.6216V24.7458C76.5977 28.0895 79.0287 29.732 82.1742 29.6405C83.0125 29.6259 83.8438 29.4849 84.64 29.2223L83.9343 25.9548C83.5335 26.0583 83.1217 26.1132 82.7079 26.1182C81.6557 26.1182 80.8105 25.7478 80.8105 24.0575V14.8627H84.3155V11.6192Z" fill="#171321"/>
<path d="M87.559 29.3922H102.291V25.7936H91.8503V5.69421H87.559V29.3922Z" fill="#171321"/>
<path d="M110.747 29.7516C113.536 29.7516 115.202 28.4446 115.964 26.9503H116.095V29.3922H120.123V17.4963C120.123 12.7999 116.293 11.397 112.902 11.397C109.164 11.397 106.295 13.0635 105.369 16.3026L109.29 16.8581C109.708 15.6426 110.887 14.6014 112.937 14.6014C114.88 14.6014 115.945 15.5968 115.945 17.3439V17.4136C115.945 18.616 114.684 18.6748 111.547 19.0103C108.098 19.3806 104.794 20.4109 104.794 24.4147C104.798 27.9 107.356 29.7516 110.747 29.7516ZM112.124 26.6736C110.381 26.6736 109.127 25.8742 109.127 24.3363C109.127 22.7265 110.527 22.0556 112.394 21.7898C113.494 21.6395 115.692 21.3542 116.237 20.9185V23.0119C116.243 24.9963 114.647 26.6736 112.124 26.6736Z" fill="#171321"/>
<path d="M123.22 29.3922H127.34V26.5931H127.584C128.237 27.9001 129.62 29.7059 132.674 29.7059C136.863 29.7059 140 26.3839 140 20.5286C140 14.6036 136.772 11.3796 132.663 11.3796C129.527 11.3796 128.22 13.2639 127.584 14.5491H127.409V5.69421H123.22V29.3922ZM127.329 20.5068C127.329 17.0585 128.81 14.8236 131.507 14.8236C134.295 14.8236 135.73 17.1958 135.73 20.5068C135.73 23.8179 134.271 26.2685 131.507 26.2685C128.832 26.2685 127.329 23.9551 127.329 20.5068Z" fill="#171321"/>
<path d="M34.3273 13.3096L34.2794 13.1855L29.5263 0.786438C29.4312 0.542382 29.2601 0.335402 29.0383 0.196112C28.8167 0.0543354 28.5559 -0.0135399 28.2933 0.00224091C28.0305 0.0149948 27.7786 0.110898 27.5738 0.276117C27.3691 0.441336 27.2221 0.667329 27.1541 0.921495L23.9519 10.7349H10.9691L7.7539 0.921495C7.68518 0.668855 7.53796 0.444586 7.33348 0.281066C7.12765 0.118004 6.87627 0.0228795 6.61405 0.00883213C6.35183 -0.00521525 6.09172 0.0625077 5.86965 0.202646C5.64846 0.342634 5.47756 0.54939 5.3817 0.792974L0.630776 13.1855L0.582852 13.3096C-0.101198 15.0972 -0.18554 17.0586 0.342544 18.8983C0.870628 20.7379 1.98251 22.356 3.51052 23.5086L3.52577 23.5194L3.56933 23.5521L10.8079 28.9718L14.3891 31.6816L16.5674 33.3284C16.8227 33.5223 17.1345 33.6272 17.4551 33.6272C17.7756 33.6272 18.0874 33.5223 18.3427 33.3284L20.5211 31.6816L24.1022 28.9718L31.3822 23.526L31.4018 23.5129C32.9301 22.3596 34.0419 20.7406 34.5696 18.9001C35.0973 17.0597 35.0123 15.0975 34.3273 13.3096Z" fill="#E24329"/>
<path d="M34.3273 13.3096L34.2793 13.1855C31.964 13.6608 29.7823 14.642 27.8903 16.0587L17.4539 23.9486L24.1022 28.9718L31.3822 23.526L31.4018 23.5129C32.93 22.3596 34.0419 20.7406 34.5696 18.9002C35.0973 17.0597 35.0122 15.0976 34.3273 13.3096Z" fill="#FC6D26"/>
<path d="M10.8079 28.9718L14.3891 31.6816L16.5674 33.3284C16.8228 33.5222 17.1345 33.6271 17.4551 33.6271C17.7757 33.6271 18.0874 33.5222 18.3427 33.3284L20.5211 31.6816L24.1022 28.9718L17.454 23.9485L10.8079 28.9718Z" fill="#FCA326"/>
<path d="M7.01762 16.0587C5.12665 14.6416 2.94558 13.6604 0.630776 13.1855L0.582852 13.3096C-0.101198 15.0972 -0.18554 17.0586 0.342544 18.8983C0.870628 20.7379 1.98251 22.356 3.51052 23.5086L3.52577 23.5195L3.56933 23.5521L10.8079 28.9718L17.454 23.9486L7.01762 16.0587Z" fill="#FC6D26"/>
</svg>
