<svg xmlns="http://www.w3.org/2000/svg" version="1.1" xmlns:xlink="http://www.w3.org/1999/xlink" xmlns:svgjs="http://svgjs.com/svgjs" width="1920" height="1080" preserveAspectRatio="none" viewBox="0 0 1920 1080"><g mask="url(&quot;#SvgjsMask1046&quot;)" fill="none"><rect width="1920" height="1080" x="0" y="0" fill="rgba(28, 37, 65, 1)"></rect><path d="M105.6 1207.44C356.68 1200.69 527.98 854.58 1039.01 835.78 1550.03 816.98 1712.08 383.97 1972.41 371.38" stroke="rgba(91, 192, 190, 1)" stroke-width="2"></path><path d="M1016.41 1241.9C1245.46 1174.56 1320.92 529.6 1648.93 526.44 1976.93 523.28 2099.06 880.65 2281.44 893.64" stroke="rgba(91, 192, 190, 1)" stroke-width="2"></path><path d="M576.37 1165.14C765.74 1162.18 898.82 946.37 1296.43 929.68 1694.04 912.99 1805.87 504.13 2016.49 486.88" stroke="rgba(91, 192, 190, 1)" stroke-width="2"></path><path d="M519.65 1132.62C780.65 1108.81 898.21 597.3 1401.21 565.3 1904.21 533.3 2039.87 164.79 2282.77 154.9" stroke="rgba(91, 192, 190, 1)" stroke-width="2"></path><path d="M723.41 1161.35C973.33 1112.79 1021.57 525.31 1476.9 476.29 1932.23 427.27 2022.2 128.73 2230.39 119.89" stroke="rgba(91, 192, 190, 1)" stroke-width="2"></path></g><defs><mask id="SvgjsMask1046"><rect width="1920" height="1080" fill="#ffffff"></rect></mask></defs></svg>