<svg xmlns="http://www.w3.org/2000/svg" version="1.1" xmlns:xlink="http://www.w3.org/1999/xlink" xmlns:svgjs="http://svgjs.com/svgjs" width="1920" height="1080" preserveAspectRatio="none" viewBox="0 0 1920 1080"><g mask="url(&quot;#SvgjsMask1203&quot;)" fill="none"><rect width="1920" height="1080" x="0" y="0" fill="rgba(28, 37, 65, 1)"></rect><path d="M84.64 203.45L161.72 247.95L161.72 336.95L84.64 381.45L7.56 336.95L7.56 247.95zM84.64 737.45L161.72 781.95L161.72 870.95L84.64 915.45L7.56 870.95L7.56 781.95zM238.8 203.45L315.88 247.95L315.88 336.95L238.8 381.45L161.72 336.95L161.72 247.95zM315.88 870.95L392.95 915.45L392.95 1004.45L315.88 1048.95L238.8 1004.45L238.8 915.45zM470.03 69.95L547.11 114.45L547.11 203.45L470.03 247.95L392.95 203.45L392.95 114.45zM392.95 1004.45L470.03 1048.95L470.03 1137.95L392.95 1182.45L315.88 1137.95L315.88 1048.95zM624.19 336.95L701.27 381.45L701.27 470.45L624.19 514.95L547.11 470.45L547.11 381.45zM547.11 1004.45L624.19 1048.95L624.19 1137.95L547.11 1182.45L470.03 1137.95L470.03 1048.95zM778.35 603.95L855.42 648.45L855.42 737.45L778.35 781.95L701.27 737.45L701.27 648.45zM1086.66 336.95L1163.74 381.45L1163.74 470.45L1086.66 514.95L1009.58 470.45L1009.58 381.45zM1009.58 470.45L1086.66 514.95L1086.66 603.95L1009.58 648.45L932.5 603.95L932.5 514.95zM1086.66 603.95L1163.74 648.45L1163.74 737.45L1086.66 781.95L1009.58 737.45L1009.58 648.45zM1009.58 737.45L1086.66 781.95L1086.66 870.95L1009.58 915.45L932.5 870.95L932.5 781.95zM1163.74 203.45L1240.82 247.95L1240.82 336.95L1163.74 381.45L1086.66 336.95L1086.66 247.95zM1394.97 603.95L1472.05 648.45L1472.05 737.45L1394.97 781.95L1317.9 737.45L1317.9 648.45zM1472.05 1004.45L1549.13 1048.95L1549.13 1137.95L1472.05 1182.45L1394.97 1137.95L1394.97 1048.95zM1626.21 203.45L1703.29 247.95L1703.29 336.95L1626.21 381.45L1549.13 336.95L1549.13 247.95zM1857.44 69.95L1934.52 114.45L1934.52 203.45L1857.44 247.95L1780.37 203.45L1780.37 114.45zM1857.44 336.95L1934.52 381.45L1934.52 470.45L1857.44 514.95L1780.37 470.45L1780.37 381.45zM1934.52 -63.55L2011.6 -19.05L2011.6 69.95L1934.52 114.45L1857.44 69.95L1857.44 -19.05z" stroke="rgba(43, 59, 86, 1)" stroke-width="6"></path><path d="M75.74 203.45 a8.9 8.9 0 1 0 17.8 0 a8.9 8.9 0 1 0 -17.8 0zM152.82 247.95 a8.9 8.9 0 1 0 17.8 0 a8.9 8.9 0 1 0 -17.8 0zM152.82 336.95 a8.9 8.9 0 1 0 17.8 0 a8.9 8.9 0 1 0 -17.8 0zM75.74 381.45 a8.9 8.9 0 1 0 17.8 0 a8.9 8.9 0 1 0 -17.8 0zM-1.34 336.95 a8.9 8.9 0 1 0 17.8 0 a8.9 8.9 0 1 0 -17.8 0zM-1.34 247.95 a8.9 8.9 0 1 0 17.8 0 a8.9 8.9 0 1 0 -17.8 0zM75.74 737.45 a8.9 8.9 0 1 0 17.8 0 a8.9 8.9 0 1 0 -17.8 0zM152.82 781.95 a8.9 8.9 0 1 0 17.8 0 a8.9 8.9 0 1 0 -17.8 0zM152.82 870.95 a8.9 8.9 0 1 0 17.8 0 a8.9 8.9 0 1 0 -17.8 0zM75.74 915.45 a8.9 8.9 0 1 0 17.8 0 a8.9 8.9 0 1 0 -17.8 0zM-1.34 870.95 a8.9 8.9 0 1 0 17.8 0 a8.9 8.9 0 1 0 -17.8 0zM-1.34 781.95 a8.9 8.9 0 1 0 17.8 0 a8.9 8.9 0 1 0 -17.8 0zM229.9 203.45 a8.9 8.9 0 1 0 17.8 0 a8.9 8.9 0 1 0 -17.8 0zM306.98 247.95 a8.9 8.9 0 1 0 17.8 0 a8.9 8.9 0 1 0 -17.8 0zM306.98 336.95 a8.9 8.9 0 1 0 17.8 0 a8.9 8.9 0 1 0 -17.8 0zM229.9 381.45 a8.9 8.9 0 1 0 17.8 0 a8.9 8.9 0 1 0 -17.8 0zM306.98 870.95 a8.9 8.9 0 1 0 17.8 0 a8.9 8.9 0 1 0 -17.8 0zM384.05 915.45 a8.9 8.9 0 1 0 17.8 0 a8.9 8.9 0 1 0 -17.8 0zM384.05 1004.45 a8.9 8.9 0 1 0 17.8 0 a8.9 8.9 0 1 0 -17.8 0zM306.98 1048.95 a8.9 8.9 0 1 0 17.8 0 a8.9 8.9 0 1 0 -17.8 0zM229.9 1004.45 a8.9 8.9 0 1 0 17.8 0 a8.9 8.9 0 1 0 -17.8 0zM229.9 915.45 a8.9 8.9 0 1 0 17.8 0 a8.9 8.9 0 1 0 -17.8 0zM461.13 69.95 a8.9 8.9 0 1 0 17.8 0 a8.9 8.9 0 1 0 -17.8 0zM538.21 114.45 a8.9 8.9 0 1 0 17.8 0 a8.9 8.9 0 1 0 -17.8 0zM538.21 203.45 a8.9 8.9 0 1 0 17.8 0 a8.9 8.9 0 1 0 -17.8 0zM461.13 247.95 a8.9 8.9 0 1 0 17.8 0 a8.9 8.9 0 1 0 -17.8 0zM384.05 203.45 a8.9 8.9 0 1 0 17.8 0 a8.9 8.9 0 1 0 -17.8 0zM384.05 114.45 a8.9 8.9 0 1 0 17.8 0 a8.9 8.9 0 1 0 -17.8 0zM461.13 1048.95 a8.9 8.9 0 1 0 17.8 0 a8.9 8.9 0 1 0 -17.8 0zM461.13 1137.95 a8.9 8.9 0 1 0 17.8 0 a8.9 8.9 0 1 0 -17.8 0zM384.05 1182.45 a8.9 8.9 0 1 0 17.8 0 a8.9 8.9 0 1 0 -17.8 0zM306.98 1137.95 a8.9 8.9 0 1 0 17.8 0 a8.9 8.9 0 1 0 -17.8 0zM615.29 336.95 a8.9 8.9 0 1 0 17.8 0 a8.9 8.9 0 1 0 -17.8 0zM692.37 381.45 a8.9 8.9 0 1 0 17.8 0 a8.9 8.9 0 1 0 -17.8 0zM692.37 470.45 a8.9 8.9 0 1 0 17.8 0 a8.9 8.9 0 1 0 -17.8 0zM615.29 514.95 a8.9 8.9 0 1 0 17.8 0 a8.9 8.9 0 1 0 -17.8 0zM538.21 470.45 a8.9 8.9 0 1 0 17.8 0 a8.9 8.9 0 1 0 -17.8 0zM538.21 381.45 a8.9 8.9 0 1 0 17.8 0 a8.9 8.9 0 1 0 -17.8 0zM538.21 1004.45 a8.9 8.9 0 1 0 17.8 0 a8.9 8.9 0 1 0 -17.8 0zM615.29 1048.95 a8.9 8.9 0 1 0 17.8 0 a8.9 8.9 0 1 0 -17.8 0zM615.29 1137.95 a8.9 8.9 0 1 0 17.8 0 a8.9 8.9 0 1 0 -17.8 0zM538.21 1182.45 a8.9 8.9 0 1 0 17.8 0 a8.9 8.9 0 1 0 -17.8 0zM769.45 603.95 a8.9 8.9 0 1 0 17.8 0 a8.9 8.9 0 1 0 -17.8 0zM846.52 648.45 a8.9 8.9 0 1 0 17.8 0 a8.9 8.9 0 1 0 -17.8 0zM846.52 737.45 a8.9 8.9 0 1 0 17.8 0 a8.9 8.9 0 1 0 -17.8 0zM769.45 781.95 a8.9 8.9 0 1 0 17.8 0 a8.9 8.9 0 1 0 -17.8 0zM692.37 737.45 a8.9 8.9 0 1 0 17.8 0 a8.9 8.9 0 1 0 -17.8 0zM692.37 648.45 a8.9 8.9 0 1 0 17.8 0 a8.9 8.9 0 1 0 -17.8 0zM1077.76 336.95 a8.9 8.9 0 1 0 17.8 0 a8.9 8.9 0 1 0 -17.8 0zM1154.84 381.45 a8.9 8.9 0 1 0 17.8 0 a8.9 8.9 0 1 0 -17.8 0zM1154.84 470.45 a8.9 8.9 0 1 0 17.8 0 a8.9 8.9 0 1 0 -17.8 0zM1077.76 514.95 a8.9 8.9 0 1 0 17.8 0 a8.9 8.9 0 1 0 -17.8 0zM1000.68 470.45 a8.9 8.9 0 1 0 17.8 0 a8.9 8.9 0 1 0 -17.8 0zM1000.68 381.45 a8.9 8.9 0 1 0 17.8 0 a8.9 8.9 0 1 0 -17.8 0zM1077.76 603.95 a8.9 8.9 0 1 0 17.8 0 a8.9 8.9 0 1 0 -17.8 0zM1000.68 648.45 a8.9 8.9 0 1 0 17.8 0 a8.9 8.9 0 1 0 -17.8 0zM923.6 603.95 a8.9 8.9 0 1 0 17.8 0 a8.9 8.9 0 1 0 -17.8 0zM923.6 514.95 a8.9 8.9 0 1 0 17.8 0 a8.9 8.9 0 1 0 -17.8 0zM1154.84 648.45 a8.9 8.9 0 1 0 17.8 0 a8.9 8.9 0 1 0 -17.8 0zM1154.84 737.45 a8.9 8.9 0 1 0 17.8 0 a8.9 8.9 0 1 0 -17.8 0zM1077.76 781.95 a8.9 8.9 0 1 0 17.8 0 a8.9 8.9 0 1 0 -17.8 0zM1000.68 737.45 a8.9 8.9 0 1 0 17.8 0 a8.9 8.9 0 1 0 -17.8 0zM1077.76 870.95 a8.9 8.9 0 1 0 17.8 0 a8.9 8.9 0 1 0 -17.8 0zM1000.68 915.45 a8.9 8.9 0 1 0 17.8 0 a8.9 8.9 0 1 0 -17.8 0zM923.6 870.95 a8.9 8.9 0 1 0 17.8 0 a8.9 8.9 0 1 0 -17.8 0zM923.6 781.95 a8.9 8.9 0 1 0 17.8 0 a8.9 8.9 0 1 0 -17.8 0zM1154.84 203.45 a8.9 8.9 0 1 0 17.8 0 a8.9 8.9 0 1 0 -17.8 0zM1231.92 247.95 a8.9 8.9 0 1 0 17.8 0 a8.9 8.9 0 1 0 -17.8 0zM1231.92 336.95 a8.9 8.9 0 1 0 17.8 0 a8.9 8.9 0 1 0 -17.8 0zM1077.76 247.95 a8.9 8.9 0 1 0 17.8 0 a8.9 8.9 0 1 0 -17.8 0zM1386.07 603.95 a8.9 8.9 0 1 0 17.8 0 a8.9 8.9 0 1 0 -17.8 0zM1463.15 648.45 a8.9 8.9 0 1 0 17.8 0 a8.9 8.9 0 1 0 -17.8 0zM1463.15 737.45 a8.9 8.9 0 1 0 17.8 0 a8.9 8.9 0 1 0 -17.8 0zM1386.07 781.95 a8.9 8.9 0 1 0 17.8 0 a8.9 8.9 0 1 0 -17.8 0zM1309 737.45 a8.9 8.9 0 1 0 17.8 0 a8.9 8.9 0 1 0 -17.8 0zM1309 648.45 a8.9 8.9 0 1 0 17.8 0 a8.9 8.9 0 1 0 -17.8 0zM1463.15 1004.45 a8.9 8.9 0 1 0 17.8 0 a8.9 8.9 0 1 0 -17.8 0zM1540.23 1048.95 a8.9 8.9 0 1 0 17.8 0 a8.9 8.9 0 1 0 -17.8 0zM1540.23 1137.95 a8.9 8.9 0 1 0 17.8 0 a8.9 8.9 0 1 0 -17.8 0zM1463.15 1182.45 a8.9 8.9 0 1 0 17.8 0 a8.9 8.9 0 1 0 -17.8 0zM1386.07 1137.95 a8.9 8.9 0 1 0 17.8 0 a8.9 8.9 0 1 0 -17.8 0zM1386.07 1048.95 a8.9 8.9 0 1 0 17.8 0 a8.9 8.9 0 1 0 -17.8 0zM1617.31 203.45 a8.9 8.9 0 1 0 17.8 0 a8.9 8.9 0 1 0 -17.8 0zM1694.39 247.95 a8.9 8.9 0 1 0 17.8 0 a8.9 8.9 0 1 0 -17.8 0zM1694.39 336.95 a8.9 8.9 0 1 0 17.8 0 a8.9 8.9 0 1 0 -17.8 0zM1617.31 381.45 a8.9 8.9 0 1 0 17.8 0 a8.9 8.9 0 1 0 -17.8 0zM1540.23 336.95 a8.9 8.9 0 1 0 17.8 0 a8.9 8.9 0 1 0 -17.8 0zM1540.23 247.95 a8.9 8.9 0 1 0 17.8 0 a8.9 8.9 0 1 0 -17.8 0zM1848.54 69.95 a8.9 8.9 0 1 0 17.8 0 a8.9 8.9 0 1 0 -17.8 0zM1925.62 114.45 a8.9 8.9 0 1 0 17.8 0 a8.9 8.9 0 1 0 -17.8 0zM1925.62 203.45 a8.9 8.9 0 1 0 17.8 0 a8.9 8.9 0 1 0 -17.8 0zM1848.54 247.95 a8.9 8.9 0 1 0 17.8 0 a8.9 8.9 0 1 0 -17.8 0zM1771.47 203.45 a8.9 8.9 0 1 0 17.8 0 a8.9 8.9 0 1 0 -17.8 0zM1771.47 114.45 a8.9 8.9 0 1 0 17.8 0 a8.9 8.9 0 1 0 -17.8 0zM1848.54 336.95 a8.9 8.9 0 1 0 17.8 0 a8.9 8.9 0 1 0 -17.8 0zM1925.62 381.45 a8.9 8.9 0 1 0 17.8 0 a8.9 8.9 0 1 0 -17.8 0zM1925.62 470.45 a8.9 8.9 0 1 0 17.8 0 a8.9 8.9 0 1 0 -17.8 0zM1848.54 514.95 a8.9 8.9 0 1 0 17.8 0 a8.9 8.9 0 1 0 -17.8 0zM1771.47 470.45 a8.9 8.9 0 1 0 17.8 0 a8.9 8.9 0 1 0 -17.8 0zM1771.47 381.45 a8.9 8.9 0 1 0 17.8 0 a8.9 8.9 0 1 0 -17.8 0zM1925.62 -63.55 a8.9 8.9 0 1 0 17.8 0 a8.9 8.9 0 1 0 -17.8 0zM2002.7 -19.05 a8.9 8.9 0 1 0 17.8 0 a8.9 8.9 0 1 0 -17.8 0zM2002.7 69.95 a8.9 8.9 0 1 0 17.8 0 a8.9 8.9 0 1 0 -17.8 0zM1848.54 -19.05 a8.9 8.9 0 1 0 17.8 0 a8.9 8.9 0 1 0 -17.8 0z" fill="rgba(43, 59, 86, 1)"></path><path d="M12.43 232.92L107.7 287.92L107.7 397.92L12.43 452.92L-82.84 397.92L-82.84 287.92zM298.23 397.92L393.49 452.92L393.49 562.92L298.23 617.92L202.96 562.92L202.96 452.92zM202.96 562.92L298.23 617.92L298.23 727.92L202.96 782.92L107.7 727.92L107.7 617.92zM298.23 1057.92L393.49 1112.92L393.49 1222.92L298.23 1277.92L202.96 1222.92L202.96 1112.92zM393.49 232.92L488.76 287.92L488.76 397.92L393.49 452.92L298.23 397.92L298.23 287.92zM679.29 67.92L774.55 122.92L774.55 232.92L679.29 287.92L584.02 232.92L584.02 122.92zM679.29 397.92L774.55 452.92L774.55 562.92L679.29 617.92L584.02 562.92L584.02 452.92zM869.82 67.92L965.08 122.92L965.08 232.92L869.82 287.92L774.55 232.92L774.55 122.92zM774.55 562.92L869.82 617.92L869.82 727.92L774.55 782.92L679.29 727.92L679.29 617.92zM869.82 727.92L965.08 782.92L965.08 892.92L869.82 947.92L774.55 892.92L774.55 782.92zM774.55 892.92L869.82 947.92L869.82 1057.92L774.55 1112.92L679.29 1057.92L679.29 947.92zM965.08 -97.08L1060.35 -42.08L1060.35 67.92L965.08 122.92L869.82 67.92L869.82 -42.08zM965.08 562.92L1060.35 617.92L1060.35 727.92L965.08 782.92L869.82 727.92L869.82 617.92zM965.08 892.92L1060.35 947.92L1060.35 1057.92L965.08 1112.92L869.82 1057.92L869.82 947.92zM1346.15 232.92L1441.41 287.92L1441.41 397.92L1346.15 452.92L1250.88 397.92L1250.88 287.92zM1536.68 -97.08L1631.94 -42.08L1631.94 67.92L1536.68 122.92L1441.41 67.92L1441.41 -42.08zM1631.94 67.92L1727.21 122.92L1727.21 232.92L1631.94 287.92L1536.68 232.92L1536.68 122.92zM1727.21 232.92L1822.47 287.92L1822.47 397.92L1727.21 452.92L1631.94 397.92L1631.94 287.92zM1727.21 562.92L1822.47 617.92L1822.47 727.92L1727.21 782.92L1631.94 727.92L1631.94 617.92zM1822.47 1057.92L1917.74 1112.92L1917.74 1222.92L1822.47 1277.92L1727.21 1222.92L1727.21 1112.92zM1917.74 232.92L2013.01 287.92L2013.01 397.92L1917.74 452.92L1822.47 397.92L1822.47 287.92z" stroke="rgba(75, 136, 149, 1)" stroke-width="4"></path></g><defs><mask id="SvgjsMask1203"><rect width="1920" height="1080" fill="#ffffff"></rect></mask></defs></svg>