<svg xmlns="http://www.w3.org/2000/svg" version="1.1" xmlns:xlink="http://www.w3.org/1999/xlink" xmlns:svgjs="http://svgjs.com/svgjs" width="1920" height="1080" preserveAspectRatio="none" viewBox="0 0 1920 1080"><g mask="url(&quot;#SvgjsMask1000&quot;)" fill="none"><rect width="1920" height="1080" x="0" y="0" fill="rgba(28, 37, 65, 1)"></rect><path d="M -757.1552427816823,451 C -565.16,498.6 -181.16,734.4 202.84475721831762,689 C 586.84,643.6 778.84,253.2 1162.8447572183177,224 C 1546.84,194.8 1971.41,532.6 2122.8447572183177,543 C 2274.28,553.4 1960.57,329.4 1920,276" stroke="rgba(91, 192, 190, 1)" stroke-width="2"></path><path d="M -1297.1015774863076,350 C -1105.1,457.2 -721.1,870.4 -337.1015774863077,886 C 46.9,901.6 238.9,495.4 622.8984225136924,428 C 1006.9,360.6 1323.48,537.6 1582.8984225136924,549 C 1842.32,560.4 1852.58,497.8 1920,485" stroke="rgba(91, 192, 190, 1)" stroke-width="2"></path><path d="M -416.51892509649497,430 C -224.52,506 159.48,827.4 543.481074903505,810 C 927.48,792.6 1119.48,350.4 1503.481074903505,343 C 1887.48,335.6 2380.18,795.2 2463.481074903505,773 C 2546.78,750.8 2028.7,340.2 1920,232" stroke="rgba(91, 192, 190, 1)" stroke-width="2"></path><path d="M -251.6873841231237,859 C -59.69,742.6 324.31,271.8 708.3126158768763,277 C 1092.31,282.2 1284.31,837.8 1668.3126158768764,885 C 2052.31,932.2 2577.98,548 2628.3126158768764,513 C 2678.65,478 2061.66,670.6 1920,710" stroke="rgba(91, 192, 190, 1)" stroke-width="2"></path><path d="M -576.1015624074563,674 C -384.1,611.4 -0.1,343.8 383.8984375925437,361 C 767.9,378.2 959.9,750.4 1343.8984375925438,760 C 1727.9,769.6 2188.68,385.6 2303.898437592544,409 C 2419.12,432.4 1996.78,783.4 1920,877" stroke="rgba(91, 192, 190, 1)" stroke-width="2"></path><path d="M -677.4944621335119,773 C -485.49,718 -101.49,509.4 282.5055378664881,498 C 666.51,486.6 858.51,731.2 1242.505537866488,716 C 1626.51,700.8 2067.01,410.4 2202.5055378664883,422 C 2338,433.6 1976.5,703.6 1920,774" stroke="rgba(91, 192, 190, 1)" stroke-width="2"></path></g><defs><mask id="SvgjsMask1000"><rect width="1920" height="1080" fill="#ffffff"></rect></mask></defs></svg>