<svg xmlns="http://www.w3.org/2000/svg" version="1.1" xmlns:xlink="http://www.w3.org/1999/xlink" xmlns:svgjs="http://svgjs.com/svgjs" width="1920" height="1080" preserveAspectRatio="none" viewBox="0 0 1920 1080"><g mask="url(&quot;#SvgjsMask1074&quot;)" fill="none"><rect width="1920" height="1080" x="0" y="0" fill="rgba(28, 37, 65, 1)"></rect><path d="M0,834.295C150.044,799.1,231.301,644.653,356.862,555.288C474.499,471.563,627.69,441.813,714.046,326.094C810.62,196.684,910.515,30.396,863.95,-124.217C816.853,-280.598,594.533,-299.068,488.384,-423.187C381.121,-548.609,400.47,-781.417,247.964,-844.487C98.361,-906.357,-62.456,-780.51,-208.936,-711.57C-335.871,-651.829,-450.784,-576.216,-544.28,-471.621C-638.938,-365.726,-738.462,-249.317,-748.765,-107.656C-758.872,31.313,-639.516,140.157,-598.457,273.306C-549.062,433.49,-605.845,637.776,-483.548,752.416C-361.813,866.529,-162.448,872.399,0,834.295" fill="#151c31"></path><path d="M1920 1843.222C2059.6059999999998 1858.1 2162.784 1712.783 2264.411 1615.915 2350.474 1533.882 2419.134 1438.375 2461.348 1327.225 2501.545 1221.386 2493.249 1109.703 2499.6 996.6659999999999 2507.663 853.172 2599.406 681.438 2503.656 574.259 2407.485 466.60799999999995 2219.7889999999998 571.3489999999999 2081.793 528.985 1941.046 485.77599999999995 1843.446 298.90999999999997 1698.964 327.221 1557.276 354.98400000000004 1527.0439999999999 548.47 1431.213 656.4639999999999 1333.8229999999999 766.2149999999999 1173.15 825.9259999999999 1131.562 966.64 1088.6970000000001 1111.673 1112.905 1288.386 1210.237 1404.138 1305.2179999999998 1517.094 1494.2350000000001 1469.567 1619.742 1547.21 1741.7359999999999 1622.6799999999998 1777.357 1828.02 1920 1843.222" fill="#232e51"></path></g><defs><mask id="SvgjsMask1074"><rect width="1920" height="1080" fill="#ffffff"></rect></mask></defs></svg>