<svg xmlns="http://www.w3.org/2000/svg" version="1.1" xmlns:xlink="http://www.w3.org/1999/xlink" xmlns:svgjs="http://svgjs.com/svgjs" width="1920" height="1080" preserveAspectRatio="none" viewBox="0 0 1920 1080"><g mask="url(&quot;#SvgjsMask1044&quot;)" fill="none"><rect width="1920" height="1080" x="0" y="0" fill="rgba(28, 37, 65, 1)"></rect><path d="M 0,187 C 96,257.6 288,542.4 480,540 C 672,537.6 768,178.8 960,175 C 1152,171.2 1248,515.2 1440,521 C 1632,526.8 1824,267.4 1920,204L1920 1080L0 1080z" fill="rgba(58, 80, 107, 1)"></path><path d="M 0,568 C 128,644 384,928 640,948 C 896,968 1024,688 1280,668 C 1536,648 1792,812 1920,848L1920 1080L0 1080z" fill="rgba(91, 192, 190, 1)"></path></g><defs><mask id="SvgjsMask1044"><rect width="1920" height="1080" fill="#ffffff"></rect></mask></defs></svg>